<?xml version="1.0" encoding="utf-8"?>
<!-- Generator: Adobe Illustrator 22.1.0, SVG Export Plug-In . SVG Version: 6.00 Build 0)  -->
<svg version="1.1" id="Layer_1" xmlns="http://www.w3.org/2000/svg" xmlns:xlink="http://www.w3.org/1999/xlink" x="0px" y="0px"
	 viewBox="0 0 216 216" style="enable-background:new 0 0 216 216;" xml:space="preserve">
<style type="text/css">
	.st0{display:none;fill:#141414;}
	.st1{fill:#141414;stroke:#050505;stroke-width:2;stroke-miterlimit:10;}
	.st2{fill:none;stroke:#141414;stroke-width:9;stroke-miterlimit:10;}
</style>
<g>
	<path class="st0" d="M8.8-8.5v227.2h228.7V-8.5H8.8z M180.5,120.6c-0.5,0.1-1.4-0.2-1.7-0.7c-0.9-1.2-1.5-2.5-2.2-3.7
		c-0.8-1.5-1.6-3-2.5-4.4c-1.4-2.1-2.6-2.5-5.1-1.9c-3.3,0.8-6,2.7-8.7,4.6c-0.9,0.6-1.8,1.3-2.7,2c-2,1.4-3.5,1.4-5.4-0.2
		c-1.2-1-2.3-2.1-3.4-3.2c-2.3-2.1-3.8-2.2-5.8,0.1c-1.5,1.6-2.8,3.5-4,5.3c-0.7,1.1-1.2,2.3-2.7,2.3c-1.6,0-2.5-1.1-3.1-2.3
		c-2.1-4.3-5.2-7.8-8.9-10.8c-4.1-3.3-8.4-3.8-13.1-2c-4.2,1.7-8.3,3.6-12.5,5.4c-6,2.6-11.9,5.4-18,7.8c-12.4,5-23.6,1.9-33.6-6.2
		c-5.7-4.6-10.4-10-14.6-16c-0.7-1-1.2-2.1-1.7-3.2c-0.8-1.8-0.3-3.5,1.1-4.2c1.4-0.6,2.7,0.1,3.7,1.9c5.5,9,12.2,16.8,21.7,21.8
		c6.3,3.3,12.8,3.8,19.7,1.7c7.3-2.2,14-5.7,20.9-8.7c4.7-2.1,9.2-4.4,14.3-5.6c5-1.1,9.6-0.2,13.7,2.8c3.7,2.7,6.9,5.7,9.3,9.5
		c0.9,1.4,1.2,1.4,2.4,0.1c1.1-1.2,2.2-2.4,3.5-3.5c2.8-2.4,5.9-2.5,8.9-0.4c1.3,0.9,2.4,2,3.5,3c1.5,1.4,1.8,1.4,3.5,0.2
		c1.4-1,2.9-2,4.3-3c2.5-1.7,5.3-2.7,8.3-3.2c2.8-0.5,5.3,0.4,7.1,2.6c2.5,2.9,3.8,6.4,4.8,10c0.1,0.2,0.1,0.4,0.1,0.9
		C181.3,119.8,180.9,120.6,180.5,120.6z M225.4,125.9c-0.8,3.3-4.5,4.8-7.7,4.2c-4.6-0.9-8-3.8-10.4-7.4c-0.3-0.2-0.6-0.3-0.9-0.5
		c-2.9-1.8-3.9-5.2-2.2-8.2c0.7-1.3,2-2.2,3.4-2.6c2-1.3,4.4-1.2,6.5-0.2c1.1,0.5,2.3,1,3.3,1.7c1.9,1.2,3.1,2.7,4.5,4.4
		c0.4,0.6,0.7,1.2,0.8,1.9C225,120.6,226,123.5,225.4,125.9z"/>
	<path class="st1" d="M181.5,119.5c-0.2,0.3-0.5,1-1,1.1c-0.5,0.1-1.4-0.2-1.7-0.7c-0.9-1.2-1.5-2.5-2.2-3.7c-0.8-1.5-1.6-3-2.5-4.4
		c-1.4-2.1-2.6-2.5-5.1-1.9c-3.3,0.8-6,2.7-8.7,4.6c-0.9,0.6-1.8,1.3-2.7,2c-2,1.4-3.5,1.4-5.4-0.2c-1.2-1-2.3-2.1-3.4-3.2
		c-2.3-2.1-3.8-2.2-5.8,0.1c-1.5,1.6-2.8,3.5-4,5.3c-0.7,1.1-1.2,2.3-2.7,2.3c-1.6,0-2.5-1.1-3.1-2.3c-2.1-4.3-5.2-7.8-8.9-10.8
		c-4.1-3.3-8.4-3.8-13.1-2c-4.2,1.7-8.3,3.6-12.5,5.4c-6,2.6-11.9,5.4-18,7.8c-12.4,5-23.6,1.9-33.6-6.2c-5.7-4.6-10.4-10-14.6-16
		c-0.7-1-1.2-2.1-1.7-3.2c-0.8-1.8-0.3-3.5,1.1-4.2c1.4-0.6,2.7,0.1,3.7,1.9c5.5,9,12.2,16.8,21.7,21.8c6.3,3.3,12.8,3.8,19.7,1.7
		c7.3-2.2,14-5.7,20.9-8.7c4.7-2.1,9.2-4.4,14.3-5.6c5-1.1,9.6-0.2,13.7,2.8c3.7,2.7,6.9,5.7,9.3,9.5c0.9,1.4,1.2,1.4,2.4,0.1
		c1.1-1.2,2.2-2.4,3.5-3.5c2.8-2.4,5.9-2.5,8.9-0.4c1.3,0.9,2.4,2,3.5,3c1.5,1.4,1.8,1.4,3.5,0.2c1.4-1,2.9-2,4.3-3
		c2.5-1.7,5.3-2.7,8.3-3.2c2.8-0.5,5.3,0.4,7.1,2.6c2.5,2.9,3.8,6.4,4.8,10C181.4,118.8,181.4,119,181.5,119.5z"/>
</g>
<circle class="st2" cx="108.1" cy="109.4" r="101.6"/>
</svg>
