<?xml version="1.0" encoding="utf-8"?>
<!-- Generator: Adobe Illustrator 17.1.0, SVG Export Plug-In . SVG Version: 6.00 Build 0)  -->
<!DOCTYPE svg PUBLIC "-//W3C//DTD SVG 1.1//EN" "http://www.w3.org/Graphics/SVG/1.1/DTD/svg11.dtd">
<svg version="1.1" id="Layer_1" xmlns="http://www.w3.org/2000/svg" xmlns:xlink="http://www.w3.org/1999/xlink" x="0px" y="0px"
	 width="64px" height="64px" viewBox="0 0 64 64" enable-background="new 0 0 64 64" xml:space="preserve">
<g>
	<path fill="none" stroke="#333333" stroke-width="2" stroke-linecap="round" stroke-linejoin="round" stroke-miterlimit="10" d="
		M40.4,42.3l1.5,7.3c0.2,0.8,1.1,1.1,1.7,0.5l1.5-1.5l2.8,2.8c0.8,0.8,2,0.8,2.8,0l0,0l0,0c0.8-0.8,0.8-2,0-2.8l-2.8-2.8l1.5-1.5
		c0.6-0.6,0.3-1.5-0.5-1.7l-7.3-1.5C40.9,41,40.3,41.6,40.4,42.3z"/>
	<g>
		<path fill="none" stroke="#333333" stroke-width="2" stroke-linecap="round" stroke-linejoin="round" stroke-miterlimit="10" d="
			M41.5,47.6h-31c-0.6,0-1-0.4-1-1V13c0-0.6,0.4-1,1-1h43c0.6,0,1,0.4,1,1v33.6c0,0.6-0.4,1-1,1h-3.8"/>
		
			<line fill="none" stroke="#333333" stroke-width="2" stroke-linecap="round" stroke-linejoin="round" stroke-miterlimit="10" x1="9" y1="18" x2="53" y2="18"/>
		<circle fill="#333333" cx="19.8" cy="15.4" r="1"/>
		<circle fill="#333333" cx="16.7" cy="15.4" r="1"/>
		<circle fill="#333333" cx="13.7" cy="15.4" r="1"/>
	</g>
	<g>
		<path fill="none" stroke="#333333" stroke-width="2" stroke-linecap="round" stroke-linejoin="round" stroke-miterlimit="10" d="
			M34.7,30.9c0.6-0.9,0.9-2,0.6-3.3C35,26.3,34.1,25.3,33,25c-2.3-0.7-4.4,1.2-4.4,3.6c0,0.9,0.3,1.7,0.7,2.3
			c0.4,0.5,0.3,1.2-0.2,1.5c-1.9,1-3.2,3.1-3.4,5.5c0,0.4,0.2,0.8,0.6,0.8h11.5c0.4,0,0.7-0.4,0.6-0.8c-0.2-2.5-1.5-4.5-3.4-5.5
			C34.5,32.1,34.3,31.4,34.7,30.9z"/>
		<path fill="none" stroke="#333333" stroke-width="2" stroke-linecap="round" stroke-linejoin="round" stroke-miterlimit="10" d="
			M35.3,38.7h2.4h8c0.3,0,0.6-0.3,0.6-0.7c-0.2-2.2-1.4-4.1-3.1-5c-0.5-0.3-0.6-0.9-0.3-1.4c0.6-0.8,0.8-1.9,0.6-3
			c-0.3-1.1-1.1-2-2.1-2.4c-2.1-0.6-4,1.1-4,3.3c0,0.8,0.2,1.5,0.7,2.1c0.3,0.4,0.2,1.1-0.2,1.4c-0.4,0.2-0.8,0.5-1.2,0.9"/>
		<path fill="none" stroke="#333333" stroke-width="2" stroke-linecap="round" stroke-linejoin="round" stroke-miterlimit="10" d="
			M28.7,38.7h-2.4h-8c-0.3,0-0.6-0.3-0.6-0.7c0.2-2.2,1.4-4.1,3.1-5c0.5-0.3,0.6-0.9,0.3-1.4c-0.6-0.8-0.8-1.9-0.6-3
			c0.3-1.1,1.1-2,2.1-2.4c2.1-0.6,4,1.1,4,3.3c0,0.8-0.2,1.5-0.7,2.1c-0.3,0.4-0.2,1.1,0.2,1.4c0.4,0.2,0.8,0.5,1.2,0.9"/>
	</g>
</g>
</svg>
