<?xml version="1.0" encoding="utf-8"?>
<!-- Generator: Adobe Illustrator 17.1.0, SVG Export Plug-In . SVG Version: 6.00 Build 0)  -->
<!DOCTYPE svg PUBLIC "-//W3C//DTD SVG 1.1//EN" "http://www.w3.org/Graphics/SVG/1.1/DTD/svg11.dtd">
<svg version="1.1" id="Layer_1" xmlns="http://www.w3.org/2000/svg" xmlns:xlink="http://www.w3.org/1999/xlink" x="0px" y="0px"
	 width="64px" height="64px" viewBox="0 0 64 64" enable-background="new 0 0 64 64" xml:space="preserve">
<g>
	<g>
		
			<polyline fill="none" stroke="#333333" stroke-width="2" stroke-linecap="round" stroke-linejoin="round" stroke-miterlimit="10" points="
			13.9,41 13.9,32.4 32,32.4 32,22.8 		"/>
		
			<polyline fill="none" stroke="#333333" stroke-width="2" stroke-linecap="round" stroke-linejoin="round" stroke-miterlimit="10" points="
			50.1,41 50.1,32.4 32,32.4 32,22.8 		"/>
	</g>
	
		<line fill="none" stroke="#333333" stroke-width="2" stroke-linecap="round" stroke-linejoin="round" stroke-miterlimit="10" x1="32" y1="32.4" x2="32" y2="40.7"/>
	<path fill="none" stroke="#333333" stroke-width="2" stroke-linecap="round" stroke-linejoin="round" stroke-miterlimit="10" d="
		M18,51.9H9.8c-0.6,0-1-0.4-1-1v-8.3c0-0.6,0.4-1,1-1H18c0.6,0,1,0.4,1,1v8.3C19,51.5,18.6,51.9,18,51.9z"/>
	<path fill="none" stroke="#333333" stroke-width="2" stroke-linecap="round" stroke-linejoin="round" stroke-miterlimit="10" d="
		M36.1,51.9h-8.3c-0.6,0-1-0.4-1-1v-8.3c0-0.6,0.4-1,1-1h8.3c0.6,0,1,0.4,1,1v8.3C37.1,51.5,36.7,51.9,36.1,51.9z"/>
	<path fill="none" stroke="#333333" stroke-width="2" stroke-linecap="round" stroke-linejoin="round" stroke-miterlimit="10" d="
		M36.1,22.3h-8.3c-0.6,0-1-0.4-1-1v-8.3c0-0.6,0.4-1,1-1h8.3c0.6,0,1,0.4,1,1v8.3C37.1,21.9,36.7,22.3,36.1,22.3z"/>
	<path fill="none" stroke="#333333" stroke-width="2" stroke-linecap="round" stroke-linejoin="round" stroke-miterlimit="10" d="
		M54.2,51.9H46c-0.6,0-1-0.4-1-1v-8.3c0-0.6,0.4-1,1-1h8.3c0.6,0,1,0.4,1,1v8.3C55.2,51.5,54.8,51.9,54.2,51.9z"/>
</g>
</svg>
