<svg id="Layer_1" data-name="Layer 1" xmlns="http://www.w3.org/2000/svg" viewBox="0 0 32.58 31.77"><defs><style>.cls-1{fill:#b9b8b9;fill-rule:evenodd;}</style></defs><title>GitHub</title><path class="cls-1" d="M16.94.44a16.29,16.29,0,0,0-5.15,31.75c.82.15,1.11-.36,1.11-.79s0-1.41,0-2.77c-4.53,1-5.49-2.18-5.49-2.18a4.37,4.37,0,0,0-1.8-2.39c-1.48-1,.11-1,.11-1a3.43,3.43,0,0,1,2.49,1.68,3.48,3.48,0,0,0,4.74,1.36,3.46,3.46,0,0,1,1-2.18c-3.62-.41-7.42-1.81-7.42-8a6.3,6.3,0,0,1,1.67-4.37A5.93,5.93,0,0,1,8.38,7.2s1.37-.44,4.48,1.67a15.41,15.41,0,0,1,8.16,0C24.13,6.76,25.5,7.2,25.5,7.2a5.93,5.93,0,0,1,.16,4.31,6.3,6.3,0,0,1,1.67,4.37c0,6.26-3.81,7.63-7.44,8a3.85,3.85,0,0,1,1.11,3c0,2.18,0,3.94,0,4.47s.29.94,1.12.79A16.3,16.3,0,0,0,16.94.44Z" transform="translate(-0.65 -0.44)"/></svg>