<svg width="24" height="24" viewBox="0 0 24 24" fill="none" xmlns="http://www.w3.org/2000/svg">
<path d="M10.9282 0.590883C9.44113 0.714723 8.00377 1.12776 6.68185 1.78872C4.74865 2.7636 3.31128 4.06056 2.1132 5.88624C1.254 7.1916 0.66744 8.67024 0.37824 10.273C0.1884 11.3057 0.1968 13.338 0.38664 14.3376C1.17984 18.4764 3.94728 21.8306 7.77217 23.268C8.40001 23.5075 8.64793 23.5159 8.86273 23.3011C9.01153 23.1523 9.02785 23.0285 9.02785 22.037V20.9465H7.97857C7.06993 20.9465 6.86329 20.9218 6.53281 20.7648C5.88025 20.4674 5.44225 19.9884 5.02921 19.129C4.66561 18.3689 4.20313 17.7989 3.63312 17.394C3.06312 16.9891 3.50928 16.6752 4.31881 16.9066C4.67401 17.0141 4.87225 17.1379 5.22745 17.5097C5.47537 17.7658 5.81401 18.1541 5.97097 18.377C6.15265 18.6331 6.42529 18.8726 6.71449 19.038C7.11097 19.261 7.24321 19.2941 7.78849 19.2859C8.12713 19.2775 8.54857 19.2197 8.72209 19.1621C9.01129 19.0546 9.05257 18.9886 9.21769 18.5011C9.31681 18.2119 9.48217 17.8567 9.58945 17.7245L9.77953 17.485L8.92849 17.3033C7.40017 16.981 6.53281 16.535 5.74801 15.6674C4.93849 14.7835 4.48393 13.404 4.48393 11.8178C4.48393 10.5787 4.72345 9.78552 5.36785 8.90976L5.64865 8.52144L5.54953 8.01744C5.37601 7.11696 5.61553 5.5224 5.94601 5.39856C6.29305 5.26632 7.69729 5.77848 8.63905 6.3816L9.02737 6.62952L9.79561 6.48072C10.8531 6.26592 13.1415 6.25776 14.1989 6.47256L14.9508 6.62952L15.6778 6.20808C16.4873 5.74536 17.2308 5.47272 17.7761 5.43984L18.1479 5.41512L18.3048 5.82816C18.5115 6.35688 18.5859 7.53 18.4452 8.08344L18.3461 8.50488L18.7179 9.06672C19.3788 10.0745 19.4779 10.4381 19.4779 11.8591C19.4698 12.9 19.4448 13.2058 19.2879 13.7592C18.8251 15.3701 17.8421 16.4194 16.2807 16.9894C16.0824 17.0638 15.5453 17.2042 15.0747 17.3033L14.2236 17.485L14.4053 17.7079C14.5044 17.8402 14.6614 18.1375 14.7523 18.3689C14.9175 18.7572 14.934 18.9967 14.959 20.9465C14.9755 22.3841 15.0168 23.1276 15.0828 23.2018C15.3639 23.5488 15.7519 23.4828 17.0904 22.8466C18.7013 22.0949 20.3619 20.7317 21.4606 19.2612C22.4849 17.9064 23.3112 15.9898 23.6167 14.2961C23.8068 13.2468 23.8068 11.3798 23.6167 10.3306C23.1377 7.67856 21.6588 5.0928 19.6431 3.39936C17.1903 1.31784 14.0674 0.310083 10.9282 0.590883Z" fill="#B9B9B9"/>
</svg>
