<svg width="24" height="27" viewBox="0 0 24 27" fill="none" xmlns="http://www.w3.org/2000/svg">
<path fill-rule="evenodd" clip-rule="evenodd" d="M12 3.18122C15.204 3.18122 15.584 3.19392 16.85 3.25529C20.102 3.41189 21.621 5.04451 21.769 8.46002C21.827 9.7985 21.838 10.2006 21.838 13.5907C21.838 16.9819 21.826 17.3829 21.769 18.7214C21.62 22.1337 20.105 23.7695 16.85 23.9261C15.584 23.9875 15.206 24.0002 12 24.0002C8.796 24.0002 8.416 23.9875 7.151 23.9261C3.891 23.7684 2.38 22.1284 2.232 18.7203C2.174 17.3818 2.162 16.9808 2.162 13.5896C2.162 10.1995 2.175 9.7985 2.232 8.45896C2.381 5.04451 3.896 3.41083 7.151 3.25423C8.417 3.19392 8.796 3.18122 12 3.18122ZM12 0.892578C8.741 0.892578 8.333 0.907391 7.053 0.96876C2.695 1.18038 0.273 3.73883 0.073 8.35421C0.014 9.70962 0 10.1413 0 13.5896C0 17.0379 0.014 17.4707 0.072 18.825C0.272 23.4362 2.69 25.9989 7.052 26.2105C8.333 26.2719 8.741 26.2867 12 26.2867C15.259 26.2867 15.668 26.2719 16.948 26.2105C21.302 25.9989 23.73 23.4404 23.927 18.825C23.986 17.4707 24 17.0379 24 13.5896C24 10.1413 23.986 9.70962 23.928 8.35527C23.732 3.74836 21.311 1.18144 16.949 0.969819C15.668 0.907391 15.259 0.892578 12 0.892578ZM12 7.06969C8.597 7.06969 5.838 9.98896 5.838 13.5896C5.838 17.1903 8.597 20.1106 12 20.1106C15.403 20.1106 18.162 17.1914 18.162 13.5896C18.162 9.98896 15.403 7.06969 12 7.06969ZM12 17.822C9.791 17.822 8 15.928 8 13.5896C8 11.2523 9.791 9.35728 12 9.35728C14.209 9.35728 16 11.2523 16 13.5896C16 15.928 14.209 17.822 12 17.822ZM18.406 5.28893C17.61 5.28893 16.965 5.9714 16.965 6.81258C16.965 7.65376 17.61 8.33623 18.406 8.33623C19.201 8.33623 19.845 7.65376 19.845 6.81258C19.845 5.9714 19.201 5.28893 18.406 5.28893Z" fill="#B9B9B9"/>
</svg>
