<svg width="24" height="24" viewBox="0 0 24 24" fill="none" xmlns="http://www.w3.org/2000/svg">
<path fill-rule="evenodd" clip-rule="evenodd" d="M1.77145 0H22.2235C23.2025 0 24 0.774645 24 1.72929V22.2679C24 23.2235 23.2025 23.9992 22.2235 23.9992H1.77145C0.794145 23.9992 0 23.2235 0 22.2679V1.72929C0 0.774645 0.794145 0 1.77145 0ZM7.40181 5.36739C7.40181 4.22892 6.477 3.30411 5.33904 3.30411C4.19807 3.30411 3.27459 4.22892 3.27459 5.36739C3.27459 6.50685 4.19807 7.43166 5.33904 7.43166C6.477 7.43166 7.40181 6.50685 7.40181 5.36739ZM3.55838 20.4505H7.11811V8.99728H3.55838V20.4505ZM12.765 8.9973H9.3509V20.4505H12.9075V14.7848C12.9075 13.291 13.1918 11.8442 15.0439 11.8442C16.8692 11.8442 16.8937 13.5527 16.8937 14.8808V20.4505H20.4508V14.1683C20.4508 11.0849 19.7853 8.71264 16.1807 8.71264C14.4491 8.71264 13.288 9.66178 12.8126 10.5623H12.765V8.9973Z" fill="#B9B9B9"/>
</svg>
