<?xml version="1.0" encoding="utf-8"?>
<!-- Generator: Adobe Illustrator 17.1.0, SVG Export Plug-In . SVG Version: 6.00 Build 0)  -->
<!DOCTYPE svg PUBLIC "-//W3C//DTD SVG 1.1//EN" "http://www.w3.org/Graphics/SVG/1.1/DTD/svg11.dtd">
<svg version="1.1" id="Layer_1" xmlns="http://www.w3.org/2000/svg" xmlns:xlink="http://www.w3.org/1999/xlink" x="0px" y="0px"
	 width="64px" height="64px" viewBox="0 0 64 64" enable-background="new 0 0 64 64" xml:space="preserve">
<g>
	<g>
		<path fill="none" stroke="#333333" stroke-width="2" stroke-linecap="round" stroke-linejoin="round" stroke-miterlimit="10" d="
			M27.6,30.5C26.5,29,26,27,26.5,24.8c0.5-2.2,2-3.9,4-4.5c3.9-1.2,7.5,2,7.5,6.2c0,1.5-0.5,2.9-1.2,3.9c-0.6,0.9-0.5,2.1,0.4,2.6
			c3.2,1.8,5.5,5.3,5.9,9.5c0.1,0.7-0.4,1.3-1.1,1.3H22.3c-0.6,0-1.1-0.6-1.1-1.3c0.4-4.2,2.7-7.7,5.9-9.5
			C28,32.6,28.2,31.4,27.6,30.5z"/>
		<path fill="none" stroke="#333333" stroke-width="2" stroke-linecap="round" stroke-linejoin="round" stroke-miterlimit="10" d="
			M26.5,43.9h-4.2H8.6c-0.6,0-1-0.5-1-1.2c0.4-3.8,2.4-7,5.3-8.6c0.8-0.4,1-1.6,0.4-2.4c-1-1.4-1.4-3.2-1-5.2c0.5-2,1.8-3.5,3.6-4.1
			c3.6-1.1,6.8,1.8,6.8,5.6c0,1.4-0.4,2.6-1.1,3.6c-0.6,0.8-0.4,1.9,0.4,2.4c0.7,0.4,1.4,0.9,2,1.5"/>
	</g>
	<g>
		<path fill="none" stroke="#333333" stroke-width="2" stroke-linecap="round" stroke-linejoin="round" stroke-miterlimit="10" d="
			M37.5,43.9h4.2h13.7c0.6,0,1-0.5,1-1.2c-0.4-3.8-2.4-7-5.3-8.6c-0.8-0.4-1-1.6-0.4-2.4c1-1.4,1.4-3.2,1-5.2
			c-0.5-2-1.8-3.5-3.6-4.1c-3.6-1.1-6.8,1.8-6.8,5.6c0,1.4,0.4,2.6,1.1,3.6c0.6,0.8,0.4,1.9-0.4,2.4c-0.7,0.4-0.8,0.3-1.4,0.9"/>
	</g>
</g>
</svg>
