<?xml version="1.0" encoding="utf-8"?>
<!-- Generator: Adobe Illustrator 17.1.0, SVG Export Plug-In . SVG Version: 6.00 Build 0)  -->
<!DOCTYPE svg PUBLIC "-//W3C//DTD SVG 1.1//EN" "http://www.w3.org/Graphics/SVG/1.1/DTD/svg11.dtd">
<svg version="1.1" id="Layer_1" xmlns="http://www.w3.org/2000/svg" xmlns:xlink="http://www.w3.org/1999/xlink" x="0px" y="0px"
	 width="64px" height="64px" viewBox="0 0 64 64" enable-background="new 0 0 64 64" xml:space="preserve">
<g>
	<g>
		<path fill="none" stroke="#333333" stroke-width="2" stroke-linecap="round" stroke-linejoin="round" stroke-miterlimit="10" d="
			M34.7,19.1c0-0.5,0-0.9-0.1-1.4l1.8-0.9l-1.6-3.3l-1.5,0.9c-0.9-1-2.2-1.8-3.2-2.2V10h-4v2.2c-1,0.4-2.7,1.1-3.7,2.2l-1.9-0.9
			l-1.7,3.3l1.8,0.9c-0.1,0.4-0.1,0.9-0.1,1.4c0,0.5,0,0.9,0.1,1.4l-1.8,0.9l1.6,3.3l2-0.9c0.9,1,2.7,1.8,3.7,2.2v1h4v-1
			c1-0.4,2.3-1.1,3.2-2.2l1.7,0.9l1.6-3.3l-1.9-0.9C34.7,20,34.7,19.6,34.7,19.1z"/>
		
			<circle fill="none" stroke="#333333" stroke-width="2" stroke-linecap="round" stroke-linejoin="round" stroke-miterlimit="10" cx="27.5" cy="19" r="3.5"/>
	</g>
	<g>
		<path fill="none" stroke="#333333" stroke-width="2" stroke-linecap="round" stroke-linejoin="round" stroke-miterlimit="10" d="
			M50.7,31.9c0-0.6-0.1-1.2-0.2-1.7l2.3-1.1l-2.1-4.2L48.9,26c-1.1-1.3-2.9-2.3-3.9-2.7V21h-5v2.3c-2,0.5-3.5,1.4-4.7,2.7l-2.4-1.1
			L30.8,29l2.2,1.1c-0.1,0.6-0.2,1.1-0.2,1.7s0.1,1.2,0.2,1.7l-2.3,1.1l2.1,4.2l2.6-1.1c1.1,1.3,2.7,2.3,4.7,2.7V42h5v-1.5
			c1-0.5,2.8-1.4,3.9-2.7l2.1,1.1l1.9-4.2l-2.3-1.1C50.7,33.1,50.7,32.5,50.7,31.9z"/>
		
			<circle fill="none" stroke="#333333" stroke-width="2" stroke-linecap="round" stroke-linejoin="round" stroke-miterlimit="10" cx="41.7" cy="31.9" r="4.4"/>
	</g>
	<path fill="none" stroke="#333333" stroke-width="2" stroke-linecap="round" stroke-linejoin="round" stroke-miterlimit="10" d="
		M26.6,40.3c1.1-1.5,1.6-3.5,1.1-5.7c-0.5-2.2-2-3.9-4-4.5c-3.9-1.2-7.5,2-7.5,6.2c0,1.5,0.5,2.9,1.2,3.9c0.6,0.9,0.5,2.1-0.4,2.6
		c-3.2,1.8-5.5,5.3-5.9,9.5c-0.1,0.7,0.4,1.3,1.1,1.3h19.8c0.6,0,1.1-0.6,1.1-1.3c-0.4-4.2-2.7-7.7-5.9-9.5
		C26.2,42.4,26,41.1,26.6,40.3z"/>
</g>
</svg>
