<svg width="24" height="27" viewBox="0 0 24 27" fill="none" xmlns="http://www.w3.org/2000/svg">
<path fill-rule="evenodd" clip-rule="evenodd" d="M24 5.45094C23.117 5.86571 22.168 6.14504 21.172 6.27096C22.189 5.62658 22.97 4.60552 23.337 3.38872C22.386 3.98549 21.332 4.4193 20.21 4.65314C19.313 3.64055 18.032 3.00781 16.616 3.00781C13.437 3.00781 11.101 6.1461 11.819 9.40395C7.728 9.18704 4.1 7.11319 1.671 3.96115C0.381 6.3027 1.002 9.36586 3.194 10.917C2.388 10.8895 1.628 10.6557 0.965 10.2652C0.911 12.6787 2.546 14.9367 4.914 15.4393C4.221 15.6382 3.462 15.6848 2.69 15.5282C3.316 17.5978 5.134 19.1034 7.29 19.1458C5.22 20.863 2.612 21.6302 0 21.3043C2.179 22.7824 4.768 23.6448 7.548 23.6448C16.69 23.6448 21.855 15.4753 21.543 8.148C22.505 7.41263 23.34 6.49527 24 5.45094Z" fill="#B9B9B9"/>
</svg>
