<?xml version="1.0" encoding="utf-8"?>
<!-- Generator: Adobe Illustrator 17.1.0, SVG Export Plug-In . SVG Version: 6.00 Build 0)  -->
<!DOCTYPE svg PUBLIC "-//W3C//DTD SVG 1.1//EN" "http://www.w3.org/Graphics/SVG/1.1/DTD/svg11.dtd">
<svg version="1.1" id="Layer_1" xmlns="http://www.w3.org/2000/svg" xmlns:xlink="http://www.w3.org/1999/xlink" x="0px" y="0px"
	 width="64px" height="64px" viewBox="0 0 64 64" enable-background="new 0 0 64 64" xml:space="preserve">
<g>
	<path fill="none" stroke="#333333" stroke-width="2" stroke-linecap="round" stroke-linejoin="round" stroke-miterlimit="10" d="
		M28.5,41.4c1.1-1.5,1.6-3.5,1.1-5.7c-0.5-2.2-2-3.9-4-4.5c-3.9-1.2-7.5,2-7.5,6.2c0,1.5,0.5,2.9,1.2,3.9c0.6,0.9,0.5,2.1-0.4,2.6
		c-3.2,1.8-5.5,5.3-5.9,9.5c-0.1,0.7,0.4,1.3,1.1,1.3h19.8c0.6,0,1.1-0.6,1.1-1.3c-0.4-4.2-2.7-7.7-5.9-9.5
		C28.1,43.5,27.8,42.2,28.5,41.4z"/>
	<path fill="none" stroke="#333333" stroke-width="2" stroke-linecap="round" stroke-linejoin="round" stroke-miterlimit="10" d="
		M29.6,54.8h4.2h13.7c0.6,0,1-0.5,1-1.2c-0.4-3.8-2.4-7-5.3-8.6c-0.8-0.4-1-1.6-0.4-2.4c1-1.4,1.4-3.2,1-5.2c-0.5-2-1.8-3.5-3.6-4.1
		c-3.6-1.1-6.8,1.8-6.8,5.6c0,1.4,0.4,2.6,1.1,3.6c0.6,0.8,0.4,1.9-0.4,2.4c-0.7,0.4-1.4,0.9-2,1.5"/>
	<g>
		<path fill="none" stroke="#333333" stroke-width="2" stroke-linecap="round" stroke-linejoin="round" stroke-miterlimit="10" d="
			M39.2,9.3c-6.5,0-11.5,4.3-11.5,9.7c0,2.4,0.8,4.5,3,6.2c0,0,0,0,0,0c0.4,1.7,0.1,3.4-0.2,4.6c-0.2,0.6,0.4,1.1,1,0.9l6-2.1
			c0.6,0.1,1.2,0.1,1.8,0.1c6.5,0,11.8-4.3,11.8-9.7C51.1,13.6,45.7,9.3,39.2,9.3z"/>
		<path fill="none" stroke="#333333" stroke-width="2" stroke-linecap="round" stroke-linejoin="round" stroke-miterlimit="10" d="
			M37.3,28.5c0,0-2.2-0.4-3.8-1.4"/>
		<g>
			<circle fill="#333333" cx="34.3" cy="19.3" r="1.3"/>
			<circle fill="#333333" cx="39.6" cy="19.3" r="1.3"/>
			<circle fill="#333333" cx="44.8" cy="19.3" r="1.3"/>
		</g>
	</g>
</g>
</svg>
