<?xml version="1.0" encoding="utf-8"?>
<!-- Generator: Adobe Illustrator 17.1.0, SVG Export Plug-In . SVG Version: 6.00 Build 0)  -->
<!DOCTYPE svg PUBLIC "-//W3C//DTD SVG 1.1//EN" "http://www.w3.org/Graphics/SVG/1.1/DTD/svg11.dtd">
<svg version="1.1" id="Layer_1" xmlns="http://www.w3.org/2000/svg" xmlns:xlink="http://www.w3.org/1999/xlink" x="0px" y="0px"
	 width="64px" height="64px" viewBox="0 0 64 64" enable-background="new 0 0 64 64" xml:space="preserve">
<g>
	<path fill="none" stroke="#333333" stroke-width="2" stroke-linecap="round" stroke-linejoin="round" stroke-miterlimit="10" d="
		M31.8,36.5L31.8,36.5c-4.7,0-8.5-3.8-8.5-8.5v-9.7c0-4.7,3.8-8.5,8.5-8.5l0,0c4.7,0,8.5,3.8,8.5,8.5V28
		C40.3,32.7,36.5,36.5,31.8,36.5z"/>
	<path fill="none" stroke="#333333" stroke-width="2" stroke-linecap="round" stroke-linejoin="round" stroke-miterlimit="10" d="
		M47.1,55.7H16.9c-0.6,0-1-0.4-1-1v-2.2c0-8.9,7.2-16.1,16.1-16.1l0,0c8.9,0,16.1,7.2,16.1,16.1v2.2C48.1,55.3,47.7,55.7,47.1,55.7z
		"/>
	<circle fill="#333333" cx="27.7" cy="23.9" r="1.1"/>
	<circle fill="#333333" cx="36" cy="23.9" r="1.1"/>
	<path fill="none" stroke="#333333" stroke-width="2" stroke-linecap="round" stroke-linejoin="round" stroke-miterlimit="10" d="
		M36,37.9c0,0-0.4,3.9-4.2,3.9s-4.2-3.9-4.2-3.9"/>
	
		<path fill="#333333" stroke="#333333" stroke-width="2" stroke-linecap="round" stroke-linejoin="round" stroke-miterlimit="10" d="
		M29.7,15c0,0,2.1,8.1,15.9,5.8c0,0-3.7-1.7-4-3.4c-0.4-2.1-1.5-10.4-11.9-9C29.7,8.4,26.5,9.8,29.7,15z"/>
	
		<path fill="#333333" stroke="#333333" stroke-width="2" stroke-linecap="round" stroke-linejoin="round" stroke-miterlimit="10" d="
		M28,11.3c0,0,1,7.8-5,9.4v3.7c0,0-3.3-2.8-1.9-7.8C22.4,11.6,24.6,7.2,28,11.3z"/>
</g>
</svg>
