<?xml version="1.0" encoding="utf-8"?>
<!-- Generator: Adobe Illustrator 17.1.0, SVG Export Plug-In . SVG Version: 6.00 Build 0)  -->
<!DOCTYPE svg PUBLIC "-//W3C//DTD SVG 1.1//EN" "http://www.w3.org/Graphics/SVG/1.1/DTD/svg11.dtd">
<svg version="1.1" id="Layer_1" xmlns="http://www.w3.org/2000/svg" xmlns:xlink="http://www.w3.org/1999/xlink" x="0px" y="0px"
	 width="64px" height="64px" viewBox="0 0 64 64" enable-background="new 0 0 64 64" xml:space="preserve">
<g>
	<g>
		<path fill="none" stroke="#333333" stroke-width="2" stroke-linecap="round" stroke-linejoin="round" stroke-miterlimit="10" d="
			M40.9,35.5C43.1,31.9,44,26,42,22.7l-4.8,8l-6.3,0.6l-2.4-5.9l4.8-8c-3.8-0.2-8.7,3.2-10.9,6.8c-2.3,3.9-1.6,7.3,1.7,10.5
			l-8.5,13.5c-1.2,1.9-0.7,4.4,1.2,5.6c1.9,1.2,4.3,0.5,5.5-1.5l8.5-13.5C34.3,39.8,38.6,39.4,40.9,35.5z"/>
	</g>
	<path fill="none" stroke="#333333" stroke-width="2" stroke-linecap="round" stroke-linejoin="round" stroke-miterlimit="10" d="
		M28,45v4h9v-3.6c2-0.9,5.6-2.6,7.7-5l4,2.1l3.7-7.7l-4.2-2.1c0.2-1,0.3-2.1,0.3-3.2c0-1.1-0.1-2.2-0.3-3.2l4.2-2.1l-3.8-7.7
		l-3.8,2.1c-2.1-2.4-5.7-4.2-7.7-5V10h-9v3.6c-3,0.9-6.1,2.6-8.3,5l-4.3-2.1l-3.8,7.7l4.2,2.1c-0.2,1-0.3,2.1-0.3,3.2
		c0,1.1,0.1,2.2,0.3,3.2l-4.2,2.1l3.8,7.7l4.4-2.3"/>
</g>
</svg>
